<svg width="47" height="47" viewBox="0 0 47 47" fill="none" xmlns="http://www.w3.org/2000/svg">
<circle opacity="0.09" cx="23.5" cy="23.5" r="23.5" fill="#0063AF"/>
<g clip-path="url(#clip0_4129_56802)">
<path d="M13.8937 13H18.1499C18.4357 13 18.6855 13.2178 18.7588 13.529L20.0138 18.9343C20.0762 19.2009 19.9946 19.485 19.8048 19.6609L17.965 21.3684C17.7464 21.5713 17.6743 21.915 17.792 22.2073C18.1727 23.149 19.1155 25.2137 20.5602 26.6221C21.9533 27.9806 23.5987 29.1198 24.3997 29.6448C24.6747 29.8247 25.0266 29.7435 25.2175 29.4567L26.511 27.5124C26.6671 27.277 26.9373 27.1755 27.1883 27.2567L31.9741 28.8073C32.2432 28.8952 32.4293 29.1726 32.4293 29.4878V34.2098C32.4293 34.5738 32.1855 34.8769 31.8649 34.9148C29.8737 35.1529 23.0006 35.3815 17.5278 28.3716C12.1091 21.4306 12.8861 15.338 13.2824 13.5371C13.3521 13.2219 13.6043 13 13.8937 13Z" fill="#0063AF"/>
<path d="M34.6557 18.2447H25.745L28.0744 16.0641C28.3468 15.8092 28.3852 15.3536 28.1594 15.0462C27.9335 14.7388 27.5297 14.6954 27.2574 14.9504L23.5839 18.3894C23.4365 18.5268 23.3516 18.7311 23.3516 18.9463C23.3516 19.1614 23.4365 19.3657 23.5839 19.5032L27.2574 22.9422C27.3775 23.0543 27.5217 23.1085 27.6659 23.1085C27.8502 23.1085 28.0328 23.0199 28.1594 22.8463C28.3852 22.539 28.3468 22.0833 28.0744 21.8284L25.7915 19.6912H34.6557C35.0098 19.6912 35.2965 19.3675 35.2965 18.968C35.2965 18.5684 35.0098 18.2447 34.6557 18.2447V18.2447Z" fill="#0063AF"/>
</g>
<defs>
<clipPath id="clip0_4129_56802">
<rect width="22.2973" height="22" fill="white" transform="translate(13 13)"/>
</clipPath>
</defs>
</svg>
