<svg width="47" height="47" viewBox="0 0 47 47" fill="none" xmlns="http://www.w3.org/2000/svg">
<circle opacity="0.09" cx="23.5" cy="23.5" r="23.5" fill="#F39325"/>
<g clip-path="url(#clip0_4129_56772)">
<path d="M18.9482 34.5325C18.4139 34.867 17.6511 35.0328 16.6691 35.0328C15.687 35.0328 14.9118 34.864 14.356 34.5325C14.1213 34.1347 14.0039 33.541 14.0039 32.7454C14.0039 31.9498 14.1213 31.3561 14.356 30.9583C14.9767 30.6238 15.7518 30.458 16.6845 30.458C17.6171 30.458 18.3707 30.6268 18.9482 30.9583C19.1829 31.3561 19.3002 31.9498 19.3002 32.7454C19.3002 33.541 19.1829 34.1347 18.9482 34.5325V34.5325Z" fill="#F39325"/>
<path d="M18.4655 28.2011C17.993 28.3488 17.3908 28.4211 16.6496 28.4211C15.9085 28.4211 15.3063 28.3488 14.8338 28.2011L14.1914 14.317C15.4329 13.44 17.1252 13 19.2685 13L19.5588 13.3436L18.4655 28.2011Z" fill="#F39325"/>
<path d="M22.0156 14.7964C23.9921 13.6392 26.0458 13.0605 28.1797 13.0605C30.3137 13.0605 31.935 13.5638 33.0499 14.5674C34.1617 15.571 34.7206 16.897 34.7206 18.5425C34.7206 21.1614 33.368 23.1715 30.6627 24.5729L28.7603 25.5463L28.4484 27.9814C27.9697 28.1441 27.3922 28.2255 26.7159 28.2255C26.0396 28.2255 25.4528 28.1441 24.9525 27.9814L24.7024 23.4427L25.0761 22.9847L26.7622 22.2222C28.8221 21.309 29.8536 20.2542 29.8536 19.0548C29.8536 18.4038 29.6343 17.8915 29.1989 17.5178C28.7634 17.1411 28.0747 16.9542 27.139 16.9542C26.2033 16.9542 25.0483 17.3099 23.674 18.0211C23.2571 17.6956 22.8834 17.2195 22.5499 16.5896C22.2164 15.9597 22.0403 15.36 22.0187 14.7934L22.0156 14.7964ZM24.5109 30.7871C25.0514 30.4616 25.7956 30.2989 26.7437 30.2989C27.6918 30.2989 28.433 30.4616 28.9765 30.7871C29.205 31.1729 29.3193 31.7515 29.3193 32.523C29.3193 33.2945 29.205 33.8731 28.9765 34.2589C28.3743 34.5844 27.63 34.7471 26.7437 34.7471C25.8574 34.7471 25.1162 34.5844 24.5109 34.2589C24.2824 33.8731 24.1681 33.2945 24.1681 32.523C24.1681 31.7515 24.2824 31.1729 24.5109 30.7871V30.7871Z" fill="#F39325"/>
</g>
<defs>
<clipPath id="clip0_4129_56772">
<rect width="21" height="22" fill="white" transform="translate(14 13)"/>
</clipPath>
</defs>
</svg>
