<svg width="47" height="47" viewBox="0 0 47 47" fill="none" xmlns="http://www.w3.org/2000/svg">
<circle opacity="0.09" cx="23.5" cy="23.5" r="23.5" fill="#FFC24B"/>
<g clip-path="url(#clip0_4129_56744)">
<path d="M13.3954 14C13.2247 14 13.0014 13.9972 12.9101 14.0884C12.8188 14.1795 12.8427 14.2406 12.8427 14.3261C12.8427 14.4475 12.8897 14.5611 12.9754 14.6466L23.9027 25.5578C23.9884 25.6433 24.1022 25.6903 24.2237 25.6903C24.3452 25.6903 24.459 25.6433 24.5447 25.5578L35.4719 14.6466C35.5576 14.5611 35.6047 14.4475 35.6047 14.3261C35.6047 14.2406 35.6173 14.169 35.5373 14.0884C35.4565 14.0084 35.2226 14 35.0512 14H13.3954Z" fill="#FFC24B"/>
<path d="M25.3392 26.3507C25.0316 26.6579 24.6277 26.8115 24.2231 26.8115C23.8186 26.8115 23.4147 26.6579 23.1071 26.3507L12.1735 15.401C12.1131 15.34 12.0091 15.3834 12.0091 15.469L12 29.6069C12 30.3763 12.6244 30.9997 13.3949 30.9997H35.0507C35.8212 30.9997 36.4456 30.3763 36.4456 29.6069L36.4364 15.4683C36.4364 15.3827 36.3325 15.34 36.2721 15.4003L25.3392 26.3507Z" fill="#FFC24B"/>
</g>
<defs>
<clipPath id="clip0_4129_56744">
<rect width="24.4463" height="17" fill="white" transform="translate(12 14)"/>
</clipPath>
</defs>
</svg>
