<svg width="47" height="47" viewBox="0 0 47 47" fill="none" xmlns="http://www.w3.org/2000/svg">
<circle opacity="0.09" cx="23.5" cy="23.5" r="23.5" fill="#3A1FA6"/>
<path d="M23.5594 11.3922C24.8909 11.3922 25.9703 10.6101 25.9703 9.64531C25.9703 8.68054 24.8909 7.89844 23.5594 7.89844C22.2279 7.89844 21.1484 8.68054 21.1484 9.64531C21.1484 10.6101 22.2279 11.3922 23.5594 11.3922Z" fill="#3A1FA6"/>
<path d="M23.6117 25.3191C27.218 25.3191 30.1414 22.3957 30.1414 18.7895C30.1414 15.1832 27.218 12.2598 23.6117 12.2598C20.0055 12.2598 17.082 15.1832 17.082 18.7895C17.082 22.3957 20.0055 25.3191 23.6117 25.3191Z" stroke="#3A1FA6" stroke-miterlimit="10"/>
<path d="M28.7618 26.8827C28.5837 26.7989 28.3875 26.761 28.191 26.7725C27.9945 26.784 27.804 26.8444 27.6368 26.9483C26.4287 27.698 25.0352 28.0952 23.6134 28.0952C22.1916 28.0952 20.7981 27.698 19.5899 26.9483C19.4228 26.8444 19.2323 26.784 19.0358 26.7725C18.8393 26.761 18.6431 26.7989 18.4649 26.8827C16.5809 27.7677 14.9566 29.123 13.7485 30.8182C12.5405 32.5134 11.7896 34.4911 11.5681 36.5608C11.5521 36.7236 11.5705 36.8878 11.6219 37.0431C11.6733 37.1983 11.7567 37.341 11.8667 37.462C11.9767 37.583 12.1108 37.6796 12.2604 37.7456C12.41 37.8116 12.5717 37.8456 12.7353 37.8452H34.4915C34.655 37.8456 34.8168 37.8116 34.9664 37.7456C35.116 37.6796 35.2501 37.583 35.3601 37.462C35.47 37.341 35.5534 37.1983 35.6049 37.0431C35.6563 36.8878 35.6746 36.7236 35.6587 36.5608C35.4372 34.4911 34.6862 32.5134 33.4782 30.8182C32.2702 29.123 30.6459 27.7677 28.7618 26.8827V26.8827Z" fill="#3A1FA6"/>
<path d="M24.7878 21.458C24.7768 21.4861 24.8128 21.4048 24.7971 21.4361L24.7659 21.5017C24.7273 21.575 24.6829 21.645 24.6331 21.7111C24.4908 21.897 24.3038 22.0438 24.0893 22.1377C23.8126 22.2526 23.5066 22.2772 23.215 22.2079C22.9235 22.1386 22.6613 21.9789 22.4659 21.7517C22.4088 21.6837 22.359 21.6099 22.3174 21.5314C22.3018 21.5048 22.2893 21.4752 22.2737 21.447C22.2581 21.4189 22.2846 21.4767 22.2737 21.458C22.1846 21.2252 21.8049 21.3267 21.8971 21.5611C22.3565 22.7486 24.0503 22.9908 24.8659 22.0377C24.9907 21.8968 25.0906 21.7356 25.1612 21.5611C25.2518 21.3267 24.8753 21.2252 24.7846 21.458H24.7878Z" fill="#3A1FA6"/>
<path d="M20.7575 19.3703C20.7615 19.3512 20.7684 19.3328 20.7778 19.3157C20.7778 19.3157 20.7528 19.3703 20.7778 19.325L20.7934 19.2938C20.8059 19.2672 20.8215 19.2406 20.8372 19.2141C20.8528 19.1875 20.8731 19.1594 20.8919 19.1313C20.9106 19.1031 20.8684 19.1563 20.8997 19.1203C20.9309 19.0844 20.9262 19.0891 20.9403 19.075C20.9666 19.0461 20.9954 19.0194 21.0262 18.9953L21.045 18.9813L21.1106 18.9422L21.1512 18.9235L21.1965 18.9094C21.22 18.9016 21.245 18.8969 21.27 18.8906H21.2825C21.2622 18.8906 21.3122 18.8906 21.3169 18.8906H21.3919C21.3919 18.8906 21.4606 18.8906 21.4294 18.8906C21.479 18.8989 21.5276 18.912 21.5747 18.9297C21.5403 18.9172 21.5997 18.9422 21.6075 18.9453L21.659 18.975L21.7075 19.0078C21.6731 18.9844 21.7262 19.0266 21.7356 19.0344C21.745 19.0422 21.7856 19.0844 21.809 19.111C21.8325 19.1375 21.8419 19.1547 21.8184 19.1235C21.8313 19.1395 21.8433 19.1562 21.8544 19.1735C21.8877 19.2278 21.9164 19.2847 21.9403 19.3438C21.9575 19.3797 21.9231 19.2953 21.9403 19.3344L21.9481 19.3563C21.9481 19.3563 21.9481 19.3688 21.9559 19.3766C22.0294 19.6156 22.4075 19.5125 22.3325 19.2719C22.2889 19.1278 22.217 18.9938 22.1209 18.8779C22.0249 18.762 21.9066 18.6665 21.7731 18.5969C21.6594 18.5422 21.536 18.5104 21.41 18.5034C21.284 18.4964 21.1578 18.5144 21.0387 18.5563C20.8374 18.6342 20.665 18.7722 20.545 18.9516C20.4765 19.0495 20.4237 19.1576 20.3887 19.2719C20.3137 19.5125 20.6903 19.6156 20.7653 19.3766L20.7575 19.3703Z" fill="#3A1FA6"/>
<path d="M25.1161 19.3707C25.1209 19.3518 25.1277 19.3334 25.1364 19.316C25.1364 19.316 25.1114 19.3707 25.1364 19.3253L25.1505 19.2941C25.1645 19.2675 25.1786 19.241 25.1942 19.2144C25.2098 19.1878 25.2301 19.1597 25.2489 19.1316C25.2676 19.1035 25.2255 19.1566 25.2583 19.1207C25.2704 19.1048 25.2835 19.0897 25.2973 19.0753C25.324 19.0468 25.3528 19.0201 25.3833 18.9957C25.3536 19.0191 25.3926 18.9957 25.4036 18.9816C25.4247 18.9673 25.4466 18.9543 25.4692 18.9425L25.5083 18.9238L25.5536 18.9097L25.627 18.891H25.6395C25.6192 18.891 25.6708 18.891 25.6739 18.891H25.7489C25.7583 18.891 25.8176 18.891 25.788 18.891C25.837 18.8994 25.8851 18.9125 25.9317 18.93C25.8973 18.9175 25.9567 18.9425 25.9645 18.9457L26.0161 18.9753L26.0645 19.0082C26.0301 18.9847 26.0848 19.0269 26.0926 19.0347C26.1187 19.0587 26.1432 19.0843 26.1661 19.1113C26.1786 19.1253 26.1989 19.155 26.177 19.1238L26.2114 19.1738C26.2461 19.2272 26.2769 19.2831 26.3036 19.341C26.3208 19.3769 26.2864 19.2925 26.3036 19.3316C26.3069 19.3386 26.3095 19.3459 26.3114 19.3535C26.3149 19.3598 26.3176 19.3667 26.3192 19.3738C26.3942 19.6128 26.7708 19.5097 26.6958 19.2691C26.6522 19.125 26.5803 18.991 26.4842 18.8751C26.3882 18.7592 26.2699 18.6637 26.1364 18.5941C26.0227 18.5393 25.8993 18.5075 25.7733 18.5005C25.6472 18.4935 25.5211 18.5115 25.402 18.5535C25.201 18.6318 25.0287 18.7697 24.9083 18.9488C24.8397 19.0467 24.787 19.1548 24.752 19.2691C24.677 19.5097 25.0536 19.6128 25.1286 19.3738L25.1161 19.3707Z" fill="#3A1FA6"/>
<path d="M31.8445 22.8559C31.1008 21.8246 31.3523 19.3168 31.3523 19.3168H31.3648C31.3648 19.3168 33.0461 14.3262 30.1961 11.2996C29.1648 10.2043 28.032 9.65586 26.3133 9.65586C25.0758 9.65586 24.332 10.1512 23.9492 10.5105C23.8576 10.5942 23.7381 10.6406 23.6141 10.6406C23.49 10.6406 23.3705 10.5942 23.2789 10.5105C22.8617 10.1355 22.3055 9.61523 20.7117 9.61523C19.118 9.61523 17.9523 10.1574 16.8789 11.298C14.0289 14.3246 15.7102 19.3152 15.7102 19.3152C15.7102 19.3152 15.9602 21.8152 15.218 22.8543C14.8256 23.4261 14.3415 23.9293 13.7852 24.3434C13.7852 24.3434 15.8852 25.8418 18.1602 25.3168C20.3211 24.8184 20.3211 24.4246 20.3211 24.4246C20.3211 24.4246 17.957 22.9387 17.5383 21.1777C17.2945 20.159 17.1836 19.5199 17.132 19.1621C18.7867 18.8652 21.4945 17.9949 23.0805 15.4434C23.2508 15.1699 23.4008 14.9105 23.5383 14.6621C23.6742 14.9121 23.8258 15.1715 23.9945 15.4434C25.5773 17.9887 28.2742 18.8605 29.932 19.159C29.8805 19.5184 29.7758 20.1574 29.5258 21.1777C29.1055 22.9387 26.7414 24.4246 26.7414 24.4246C26.7414 24.4246 26.7414 24.8184 28.9023 25.3168C31.1805 25.8418 33.2773 24.3434 33.2773 24.3434C32.7209 23.93 32.2367 23.4274 31.8445 22.8559Z" fill="#3A1FA6"/>
</svg>
