<svg width="47" height="47" viewBox="0 0 47 47" fill="none" xmlns="http://www.w3.org/2000/svg">
<circle opacity="0.09" cx="23.5" cy="23.5" r="23.5" fill="#36A9E0"/>
<path d="M23.7833 22.8795C27.9094 22.8795 31.2542 19.5486 31.2542 15.4398C31.2542 11.3309 27.9094 8 23.7833 8C19.6573 8 16.3125 11.3309 16.3125 15.4398C16.3125 19.5486 19.6573 22.8795 23.7833 22.8795Z" stroke="#36A9E0" stroke-width="1.2" stroke-linecap="round" stroke-linejoin="round" stroke-dasharray="2 2.4"/>
<path d="M29.6743 24.7453C29.2606 24.5501 28.7756 24.5797 28.3876 24.8222C27.0514 25.6481 25.4737 26.1272 23.7851 26.1272C22.0966 26.1272 20.5189 25.6481 19.1827 24.8222C18.7927 24.5817 18.3097 24.5521 17.8959 24.7453C13.6102 26.7521 10.5241 30.88 10.0074 35.7709C9.92427 36.5535 10.5518 37.2336 11.3416 37.2336H36.2286C37.0185 37.2336 37.646 36.5535 37.5628 35.7709C37.0442 30.88 33.96 26.7521 29.6743 24.7453Z" stroke="#36A9E0" stroke-width="1.2" stroke-linecap="round" stroke-linejoin="round" stroke-dasharray="2 2.4"/>
</svg>
