<svg width="47" height="47" viewBox="0 0 47 47" fill="none" xmlns="http://www.w3.org/2000/svg">
<circle opacity="0.09" cx="23.5" cy="23.5" r="23.5" fill="#F39325"/>
<path d="M22.1426 32.4199C22.1087 32.4202 22.0753 32.4272 22.0442 32.4405C22.0132 32.4539 21.9853 32.4733 21.9621 32.4976C21.9389 32.5219 21.921 32.5505 21.9095 32.5818C21.898 32.6131 21.893 32.6464 21.8949 32.6797C21.9228 33.2182 22.1599 33.7257 22.5574 34.0972C22.955 34.4687 23.4824 34.6758 24.0309 34.6758C24.5793 34.6758 25.1068 34.4687 25.5043 34.0972C25.9018 33.7257 26.139 33.2182 26.1668 32.6797C26.1686 32.6465 26.1635 32.6132 26.1519 32.582C26.1403 32.5508 26.1224 32.5222 26.0993 32.4979C26.0762 32.4736 26.0483 32.4542 26.0173 32.4408C25.9864 32.4274 25.953 32.4203 25.9192 32.4199H22.1426Z" fill="#F39325"/>
<path d="M33.5651 29.2157L33.2063 29.0588C32.9754 28.9573 32.7793 28.7924 32.6414 28.5839C32.5035 28.3754 32.4299 28.1322 32.4292 27.8835V22.1475C32.4272 20.4124 31.8222 18.73 30.7146 17.3792C29.6069 16.0283 28.0631 15.0901 26.339 14.7201C26.3593 14.4105 26.315 14.1 26.2087 13.8079C26.1024 13.5158 25.9364 13.2481 25.7209 13.0215C25.5054 12.7948 25.245 12.614 24.9557 12.49C24.6664 12.3661 24.3544 12.3017 24.0389 12.3008C23.7233 12.2999 23.4109 12.3625 23.1209 12.4849C22.831 12.6072 22.5695 12.7866 22.3527 13.012C22.1359 13.2375 21.9684 13.5041 21.8604 13.7957C21.7524 14.0872 21.7062 14.3974 21.7248 14.7071C19.9992 15.0767 18.4542 16.0157 17.3465 17.368C16.2388 18.7204 15.6351 20.4047 15.6356 22.1411V27.8835C15.6335 28.1325 15.5586 28.3758 15.4199 28.5842C15.2811 28.7926 15.0843 28.9573 14.853 29.0588L14.4942 29.2157C14.262 29.3173 14.0648 29.4829 13.9265 29.6925C13.7881 29.9021 13.7146 30.1466 13.7148 30.3965V31.3272C13.7147 31.3747 13.7241 31.4218 13.7425 31.4657C13.761 31.5096 13.788 31.5495 13.8222 31.5831C13.8564 31.6167 13.897 31.6433 13.9416 31.6615C13.9863 31.6796 14.0342 31.6888 14.0825 31.6887H33.9801C34.0283 31.6887 34.0761 31.6793 34.1206 31.6611C34.1652 31.643 34.2056 31.6163 34.2397 31.5827C34.2737 31.5492 34.3007 31.5093 34.3191 31.4655C34.3374 31.4216 34.3468 31.3746 34.3467 31.3272V30.3965C34.3457 30.1466 34.2715 29.9023 34.1329 29.6929C33.9943 29.4834 33.7971 29.3178 33.5651 29.2157V29.2157Z" fill="#F39325"/>
</svg>
