<svg width="47" height="47" viewBox="0 0 47 47" fill="none" xmlns="http://www.w3.org/2000/svg">
<circle opacity="0.09" cx="23.5" cy="23.5" r="23.5" fill="#A042CD"/>
<g clip-path="url(#clip0_4129_56674)">
<path d="M32.139 14H15.861C13.7285 14 12 15.6391 12 17.662V26.714C12 28.7368 13.7285 30.376 15.861 30.376H21.1748L24.0993 35L27.313 30.376H32.1376C34.2702 30.376 35.9986 28.7368 35.9986 26.714V17.662C35.9986 15.6391 34.2702 14 32.1376 14H32.139ZM25.0764 26.5997C24.8413 26.7351 24.5507 26.8028 24.2074 26.8028C23.8642 26.8028 23.5723 26.7351 23.3371 26.5997C23.2479 26.4389 23.2033 26.1977 23.2033 25.8761C23.2033 25.5544 23.2479 25.3132 23.3371 25.1524C23.5479 25.017 23.8372 24.9493 24.2074 24.9493C24.5777 24.9493 24.8656 25.017 25.0764 25.1524C25.1656 25.3132 25.2102 25.5544 25.2102 25.8761C25.2102 26.1977 25.1656 26.4389 25.0764 26.5997ZM25.7332 22.5625L24.9913 22.9688L24.8696 23.9844C24.6831 24.0521 24.4575 24.086 24.1953 24.086C23.9331 24.086 23.702 24.0521 23.5088 23.9844L23.4115 22.0928L23.5574 21.9023L24.2142 21.5849C25.0169 21.2041 25.4183 20.764 25.4183 20.2646C25.4183 19.9938 25.3332 19.7807 25.1629 19.6242C24.9926 19.4676 24.725 19.3886 24.3602 19.3886C23.9953 19.3886 23.5452 19.5367 23.0101 19.8329C22.8479 19.6975 22.702 19.4986 22.5722 19.2362C22.4425 18.9739 22.3736 18.7242 22.3654 18.4872C23.1358 18.0048 23.9358 17.7636 24.7683 17.7636C25.6008 17.7636 26.2319 17.9737 26.6657 18.3927C27.0995 18.8116 27.3171 19.3632 27.3171 20.0502C27.3171 21.142 26.79 21.9799 25.7359 22.5639L25.7332 22.5625Z" fill="#A042CD"/>
</g>
<defs>
<clipPath id="clip0_4129_56674">
<rect width="24" height="21" fill="white" transform="translate(12 14)"/>
</clipPath>
</defs>
</svg>
