<svg width="39" height="37" viewBox="0 0 39 37" fill="none" xmlns="http://www.w3.org/2000/svg">
<path d="M31.374 26.6517H24.3793L19.7233 33.069L15.4826 26.6517H7.78076C4.68983 26.6517 2.18457 24.375 2.18457 21.5618V9.00529C2.18457 6.19799 4.68983 3.91534 7.78076 3.91534H31.374C34.465 3.91534 36.9702 6.19016 36.9702 9.00529V21.5677C36.9702 24.375 34.465 26.6517 31.374 26.6517Z" fill="white"/>
<path d="M26.3972 17.0218H13.6417C13.4286 17.0218 13.2559 17.1945 13.2559 17.4075V17.5425C13.2559 17.7555 13.4286 17.9282 13.6417 17.9282H26.3972C26.6103 17.9282 26.7831 17.7555 26.7831 17.5425V17.4075C26.7831 17.1945 26.6103 17.0218 26.3972 17.0218Z" fill="url(#paint0_linear_2068_50085)"/>
<path d="M30.5609 13.41H9.47675C9.25282 13.41 9.07129 13.5915 9.07129 13.8153V13.9112C9.07129 14.135 9.25282 14.3164 9.47675 14.3164H30.5609C30.7848 14.3164 30.9663 14.135 30.9663 13.9112V13.8153C30.9663 13.5915 30.7848 13.41 30.5609 13.41Z" fill="url(#paint1_linear_2068_50085)"/>
<defs>
<linearGradient id="paint0_linear_2068_50085" x1="13.2559" y1="17.8715" x2="13.4215" y2="15.8115" gradientUnits="userSpaceOnUse">
<stop stop-color="#36A9E0"/>
<stop offset="1" stop-color="#0367B2"/>
</linearGradient>
<linearGradient id="paint1_linear_2068_50085" x1="9.07129" y1="14.2598" x2="9.17404" y2="12.1915" gradientUnits="userSpaceOnUse">
<stop stop-color="#36A9E0"/>
<stop offset="1" stop-color="#0367B2"/>
</linearGradient>
</defs>
</svg>
