<svg width="31" height="30" viewBox="0 0 31 30" fill="none" xmlns="http://www.w3.org/2000/svg">
<g clip-path="url(#clip0_2203_49956)">
<path d="M6.75 13.75H16.75V16.25H6.75V20L0.5 15L6.75 10V13.75ZM5.5 22.5H8.885C10.3284 23.7729 12.1084 24.6023 14.0114 24.8887C15.9145 25.175 17.8597 24.9062 19.6138 24.1144C21.3678 23.3226 22.8561 22.0415 23.9001 20.4248C24.9441 18.8081 25.4994 16.9245 25.4994 15C25.4994 13.0755 24.9441 11.1919 23.9001 9.57524C22.8561 7.95854 21.3678 6.67743 19.6138 5.88563C17.8597 5.09382 15.9145 4.82497 14.0114 5.11133C12.1084 5.39768 10.3284 6.22708 8.885 7.5H5.5C6.66333 5.94647 8.17292 4.68564 9.90884 3.81768C11.6448 2.94972 13.5592 2.49855 15.5 2.5C22.4037 2.5 28 8.09625 28 15C28 21.9038 22.4037 27.5 15.5 27.5C13.5592 27.5015 11.6448 27.0503 9.90884 26.1823C8.17292 25.3144 6.66333 24.0535 5.5 22.5V22.5Z" fill="white"/>
</g>
<defs>
<clipPath id="clip0_2203_49956">
<rect width="30" height="30" fill="white" transform="translate(0.5)"/>
</clipPath>
</defs>
</svg>
