<svg width="35" height="35" viewBox="0 0 35 35" fill="none" xmlns="http://www.w3.org/2000/svg">
<path d="M14.951 29.9879C14.9056 29.9882 14.8607 29.998 14.819 30.0167C14.7774 30.0354 14.7399 30.0625 14.7088 30.0965C14.6778 30.1306 14.6537 30.1707 14.6382 30.2145C14.6228 30.2583 14.6161 30.3049 14.6187 30.3515C14.656 31.1055 14.9742 31.8159 15.5076 32.336C16.0409 32.8561 16.7486 33.1461 17.4844 33.1461C18.2203 33.1461 18.928 32.8561 19.4613 32.336C19.9946 31.8159 20.3128 31.1055 20.3501 30.3515C20.3525 30.305 20.3457 30.2585 20.3302 30.2148C20.3146 30.171 20.2906 30.131 20.2595 30.097C20.2285 30.063 20.1911 30.0359 20.1496 30.0171C20.108 29.9984 20.0632 29.9884 20.0179 29.9879H14.951Z" fill="white"/>
<path d="M30.2741 25.5015L29.7927 25.2818C29.4829 25.1397 29.2197 24.9088 29.0347 24.6169C28.8498 24.325 28.7509 23.9845 28.75 23.6363V15.606C28.7473 13.1768 27.9356 10.8215 26.4495 8.93029C24.9635 7.03911 22.8922 5.72565 20.5789 5.20755C20.6062 4.77409 20.5468 4.33949 20.4041 3.93052C20.2615 3.52155 20.0388 3.14687 19.7497 2.82956C19.4606 2.51225 19.1112 2.25903 18.7231 2.0855C18.335 1.91198 17.9164 1.82181 17.493 1.82057C17.0696 1.81933 16.6505 1.90703 16.2615 2.07827C15.8724 2.24952 15.5216 2.50068 15.2307 2.81629C14.9399 3.1319 14.7151 3.50526 14.5702 3.91339C14.4253 4.32152 14.3633 4.75576 14.3882 5.18936C12.0731 5.70682 10.0003 7.02141 8.51412 8.9147C7.02794 10.808 6.21791 13.166 6.21861 15.5969V23.6363C6.21581 23.985 6.11534 24.3255 5.92918 24.6173C5.74301 24.909 5.47899 25.1397 5.16861 25.2818L4.68717 25.5015C4.37569 25.6437 4.11111 25.8756 3.92552 26.169C3.73993 26.4624 3.64131 26.8047 3.6416 27.1545V28.4575C3.64141 28.5241 3.65403 28.59 3.67875 28.6514C3.70347 28.7129 3.7398 28.7688 3.78564 28.8158C3.83148 28.8629 3.88593 28.9001 3.94586 28.9255C4.0058 28.9509 4.07002 28.9638 4.13485 28.9636H30.8308C30.8955 28.9636 30.9596 28.9505 31.0194 28.9251C31.0791 28.8996 31.1334 28.8623 31.1791 28.8153C31.2248 28.7683 31.261 28.7125 31.2856 28.6511C31.3102 28.5897 31.3228 28.5239 31.3226 28.4575V27.1545C31.3214 26.8047 31.2218 26.4627 31.0358 26.1695C30.8498 25.8763 30.5853 25.6443 30.2741 25.5015V25.5015Z" fill="white"/>
</svg>
