<svg width="31" height="30" viewBox="0 0 31 30" fill="none" xmlns="http://www.w3.org/2000/svg">
<path d="M7.16744 5.68125C8.45085 4.5316 9.9583 3.65999 11.5949 3.12125C12.0629 3.70753 12.657 4.18078 13.3331 4.50583C14.0092 4.83088 14.7498 4.99936 15.4999 4.99875C16.2501 4.99936 16.9907 4.83088 17.6668 4.50583C18.3429 4.18078 18.937 3.70753 19.4049 3.12125C21.0416 3.65999 22.549 4.5316 23.8324 5.68125C23.5593 6.37931 23.4469 7.12992 23.5036 7.87736C23.5603 8.6248 23.7847 9.34987 24.1599 9.99875C24.5344 10.6489 25.0507 11.2062 25.6703 11.6293C26.2899 12.0524 26.9969 12.3303 27.7387 12.4425C28.0894 14.1286 28.0894 15.8689 27.7387 17.555C26.2887 17.7775 24.9512 18.63 24.1599 19.9987C23.7845 20.6478 23.56 21.3731 23.5033 22.1207C23.4466 22.8684 23.5591 23.6193 23.8324 24.3175C22.5489 25.4667 21.0415 26.3379 19.4049 26.8762C18.9368 26.2902 18.3427 25.8172 17.6666 25.4924C16.9906 25.1675 16.25 24.9992 15.4999 25C14.7498 24.9994 14.0092 25.1679 13.3331 25.4929C12.657 25.818 12.0629 26.2912 11.5949 26.8775C9.9584 26.3391 8.45096 25.4679 7.16744 24.3187C7.44075 23.6205 7.55324 22.8697 7.49654 22.122C7.43984 21.3743 7.21542 20.649 6.83994 20C6.4653 19.3501 5.949 18.793 5.32942 18.3702C4.70984 17.9473 4.00291 17.6695 3.26119 17.5575C2.91033 15.871 2.91033 14.1303 3.26119 12.4437C4.00302 12.3316 4.71002 12.0536 5.32961 11.6305C5.9492 11.2074 6.46544 10.6501 6.83994 10C7.21523 9.35112 7.43954 8.62605 7.49624 7.87861C7.55294 7.13117 7.44056 6.38056 7.16744 5.6825V5.68125ZM17.3749 18.2462C17.8049 18.0018 18.1822 17.6748 18.4852 17.2839C18.7882 16.893 19.0109 16.4461 19.1405 15.9688C19.2701 15.4916 19.3039 14.9934 19.2402 14.503C19.1765 14.0125 19.0163 13.5396 18.7691 13.1113C18.5218 12.683 18.1922 12.3078 17.7994 12.0074C17.4065 11.707 16.9581 11.4873 16.48 11.3609C16.0019 11.2345 15.5035 11.2039 15.0135 11.2709C14.5235 11.3379 14.0516 11.5011 13.6249 11.7512C12.7707 12.2521 12.1492 13.0704 11.896 14.0278C11.6429 14.9852 11.7788 16.0038 12.2739 16.8614C12.769 17.7189 13.5833 18.3458 14.5389 18.6053C15.4946 18.8648 16.5141 18.7357 17.3749 18.2462V18.2462Z" fill="white"/>
</svg>
