<?xml version="1.0" standalone="no"?>
<!DOCTYPE svg PUBLIC "-//W3C//DTD SVG 20010904//EN"
 "http://www.w3.org/TR/2001/REC-SVG-20010904/DTD/svg10.dtd">
<svg version="1.0" xmlns="http://www.w3.org/2000/svg"
 width="2000.000000pt" height="2000.000000pt" viewBox="0 0 2000.000000 2000.000000"
 preserveAspectRatio="xMidYMid meet">
<metadata>
Created by potrace 1.14, written by Peter Selinger 2001-2017
</metadata>
<g transform="translate(0.000000,2000.000000) scale(0.100000,-0.100000)"
fill="#000000" stroke="none">
<path d="M17735 16004 c-478 -360 -889 -668 -912 -684 l-41 -30 -54 28 c-51
26 -202 97 -301 141 -110 50 -353 142 -497 190 -129 43 -433 130 -506 145 -10
3 -73 16 -139 30 -134 28 -322 61 -405 71 -30 3 -62 8 -70 10 -8 2 -51 7 -95
11 -44 3 -89 8 -100 10 -87 16 -743 19 -4605 19 -3845 0 -4526 -3 -4632 -20
-13 -2 -54 -6 -93 -10 -38 -3 -113 -12 -166 -20 -53 -8 -116 -17 -141 -20 -36
-5 -224 -42 -358 -70 -74 -16 -280 -71 -396 -105 -172 -52 -380 -124 -464
-162 -25 -11 -49 -21 -55 -23 -65 -14 -643 -293 -686 -331 -8 -8 -18 -14 -21
-14 -7 0 -160 -91 -261 -155 -205 -131 -600 -428 -698 -524 -9 -9 -49 -45 -90
-81 -90 -80 -309 -298 -406 -405 -486 -538 -856 -1129 -1128 -1805 -25 -63
-48 -122 -50 -130 -3 -8 -25 -73 -50 -145 -38 -110 -111 -348 -119 -388 -2 -7
-8 -31 -14 -53 -7 -23 -16 -62 -21 -85 -5 -24 -12 -53 -14 -64 -9 -34 -38
-168 -42 -195 -2 -14 -11 -63 -19 -110 -17 -104 -23 -141 -32 -205 -3 -27 -8
-59 -10 -70 -2 -11 -7 -48 -9 -82 -3 -33 -8 -76 -10 -95 -27 -213 -27 -917 0
-1123 2 -16 7 -59 10 -95 5 -53 23 -185 40 -295 2 -11 6 -40 10 -65 25 -163
100 -479 167 -700 184 -610 469 -1193 834 -1705 19 -27 43 -61 52 -75 9 -14
22 -32 29 -40 192 -241 213 -271 209 -298 -3 -15 -8 -47 -11 -72 -6 -42 -21
-144 -30 -200 -2 -14 -6 -45 -9 -70 -3 -25 -8 -56 -11 -69 -2 -14 -7 -45 -10
-70 -3 -25 -7 -57 -9 -71 -3 -14 -7 -43 -11 -65 -3 -22 -7 -53 -10 -70 -3 -16
-7 -48 -10 -70 -3 -22 -10 -67 -15 -100 -5 -33 -11 -76 -14 -95 -15 -112 -19
-136 -21 -150 -3 -18 -12 -80 -20 -133 -3 -20 -8 -54 -11 -75 -3 -20 -9 -64
-14 -97 -5 -33 -12 -82 -15 -110 -4 -27 -8 -57 -10 -65 -2 -8 -7 -37 -10 -65
-4 -27 -9 -63 -12 -80 -2 -16 -6 -39 -7 -50 -7 -53 -19 -132 -21 -145 -1 -8
-6 -40 -10 -70 -4 -30 -9 -62 -10 -71 -2 -9 -6 -40 -10 -69 -4 -29 -9 -62 -11
-74 -2 -11 -6 -38 -9 -61 -4 -22 -8 -51 -10 -65 -2 -14 -7 -45 -10 -70 -3 -25
-11 -74 -16 -110 -12 -81 -16 -103 -23 -161 -4 -25 -9 -57 -11 -70 -2 -13 -6
-41 -9 -62 l-6 -38 27 20 c16 11 60 44 99 73 39 29 111 83 160 120 49 36 267
200 484 363 217 163 590 442 828 621 l433 325 77 -42 c317 -175 661 -326 985
-434 135 -44 336 -104 406 -120 9 -2 53 -13 98 -24 45 -11 92 -22 105 -25 44
-9 181 -36 207 -41 14 -3 37 -7 51 -10 14 -3 45 -8 70 -11 25 -3 54 -8 64 -10
11 -2 56 -8 100 -14 45 -6 96 -13 114 -15 18 -3 68 -7 111 -10 44 -3 88 -8
100 -10 77 -15 836 -18 4511 -18 3625 0 4347 3 4535 18 55 4 163 15 205 20 19
3 55 7 80 10 130 16 236 33 385 61 46 9 151 31 183 38 9 2 40 9 67 16 270 60
639 183 945 313 175 74 519 246 633 315 37 23 69 42 72 42 6 0 160 99 285 183
922 620 1648 1486 2115 2522 82 182 256 661 279 767 3 13 15 57 26 98 45 162
108 459 126 590 2 19 6 46 9 60 2 14 7 48 11 75 3 28 8 58 10 68 1 9 6 54 10
100 3 45 8 84 9 87 11 18 20 291 20 570 0 329 -5 419 -31 650 -3 25 -7 63 -9
85 -3 22 -7 49 -9 60 -2 12 -8 48 -12 80 -4 33 -8 62 -9 65 -1 3 -5 25 -9 50
-4 25 -14 77 -21 115 -8 39 -16 81 -19 95 -37 195 -135 544 -216 768 -155 434
-314 757 -595 1215 -11 18 -63 96 -116 172 -182 263 -391 518 -623 760 -62 64
-67 73 -62 105 3 19 12 85 21 145 20 137 23 156 30 208 3 23 8 53 10 67 2 14
7 45 10 70 7 53 14 95 20 130 2 14 7 45 10 70 7 53 26 189 30 210 2 8 6 38 9
65 4 28 9 61 11 75 2 14 13 88 24 165 21 142 29 200 36 245 12 74 43 288 50
345 4 28 8 57 10 65 4 15 10 60 20 135 2 22 14 101 25 175 24 159 34 240 29
239 -2 0 -395 -295 -874 -655z m-11049 -1065 c-12 -8 -61 -44 -111 -79 -432
-307 -820 -670 -1186 -1110 -293 -353 -618 -881 -814 -1325 -95 -215 -246
-624 -270 -730 -2 -11 -11 -45 -20 -75 -17 -57 -73 -277 -81 -319 -3 -12 -11
-51 -19 -85 -7 -33 -17 -81 -20 -106 -3 -25 -8 -52 -10 -60 -2 -8 -6 -31 -9
-50 -3 -19 -7 -44 -10 -55 -2 -11 -7 -42 -10 -70 -9 -73 -18 -138 -22 -157 -1
-9 -6 -52 -10 -95 -3 -43 -8 -91 -10 -108 -23 -212 -23 -741 1 -1015 10 -112
39 -352 49 -405 2 -11 7 -40 11 -65 9 -56 13 -78 20 -110 3 -14 7 -36 10 -50
3 -14 7 -36 10 -50 3 -14 8 -36 11 -50 2 -14 9 -45 14 -70 6 -25 13 -56 16
-70 8 -38 24 -101 35 -135 5 -16 23 -79 40 -140 116 -411 334 -925 543 -1278
25 -43 46 -80 46 -82 0 -19 251 -393 359 -535 91 -120 125 -164 131 -170 3 -3
25 -30 50 -60 132 -162 489 -531 639 -660 35 -30 73 -63 85 -73 43 -37 62 -53
111 -92 28 -22 52 -43 55 -46 9 -11 275 -206 333 -244 31 -21 57 -38 57 -39 0
-1 -217 -1 -482 0 -482 1 -619 6 -828 28 -98 11 -326 46 -402 62 -37 7 -82 16
-100 19 -18 3 -105 24 -193 47 -518 132 -1029 358 -1479 656 -71 47 -136 91
-145 98 -9 7 -53 40 -97 72 -88 65 -86 64 -189 148 -564 465 -1041 1083 -1340
1734 -63 137 -151 349 -171 415 -2 6 -22 64 -44 130 -75 217 -166 611 -196
840 -3 28 -8 57 -9 66 -2 9 -6 52 -10 95 -4 43 -9 86 -10 94 -22 121 -22 688
0 875 2 17 6 62 10 100 4 39 9 77 10 86 2 9 6 40 10 69 4 29 9 62 11 74 2 12
6 37 9 56 3 19 7 46 10 60 3 14 8 41 11 60 4 19 19 89 34 155 125 542 331
1041 625 1510 84 135 236 355 270 391 5 6 21 26 35 44 179 239 453 517 780
794 29 25 214 164 250 189 467 320 850 512 1336 671 127 41 408 118 474 130
14 2 63 11 110 20 47 9 101 19 120 22 19 3 58 9 85 14 54 10 104 16 205 26 36
3 76 7 90 10 14 2 102 7 195 10 94 4 171 7 172 8 1 1 190 1 420 1 383 0 418
-1 399 -16z m3574 6 c80 -3 161 -7 180 -9 45 -4 160 -17 180 -21 8 -1 40 -6
70 -10 30 -4 64 -9 75 -11 10 -2 35 -6 55 -9 38 -6 70 -12 110 -20 14 -3 34
-7 45 -9 146 -28 274 -61 457 -115 139 -42 406 -138 422 -152 4 -4 -44 -60
-107 -124 -139 -140 -162 -180 -162 -280 0 -79 18 -124 119 -300 81 -139 121
-191 265 -338 69 -70 137 -146 150 -168 31 -52 49 -142 39 -199 -4 -25 -7 -83
-7 -130 0 -47 -4 -98 -9 -115 -7 -25 -3 -40 20 -84 77 -142 136 -173 278 -144
103 21 114 23 128 28 25 9 166 19 262 18 184 0 267 -18 340 -72 71 -52 99 -96
159 -248 71 -179 178 -236 366 -197 178 37 291 121 440 327 27 37 50 67 51 67
5 0 75 -118 138 -233 286 -518 480 -1091 561 -1657 3 -19 7 -48 10 -64 3 -16
8 -59 11 -95 3 -36 7 -72 9 -78 26 -81 26 -754 1 -963 -3 -19 -7 -62 -11 -95
-3 -33 -17 -132 -31 -220 -27 -167 -29 -174 -38 -215 -3 -14 -15 -65 -26 -115
-31 -134 -114 -422 -125 -433 -2 -2 -27 10 -57 26 -29 16 -78 37 -108 47 -118
38 -194 95 -235 175 -60 118 -50 253 28 372 103 159 98 239 -22 401 -138 187
-282 208 -441 66 -178 -159 -338 -248 -530 -293 -8 -2 -62 -18 -120 -34 -107
-31 -363 -101 -390 -107 -64 -13 -171 -70 -265 -141 -92 -68 -149 -88 -238
-80 -38 3 -72 8 -76 10 -7 5 -30 7 -186 24 -134 14 -384 7 -454 -12 -151 -41
-273 -129 -351 -253 -85 -134 -194 -210 -335 -233 -38 -6 -88 -16 -109 -22
-51 -13 -137 -99 -153 -153 -12 -36 -12 -228 -1 -265 2 -8 8 -31 12 -50 15
-63 66 -151 119 -204 29 -29 93 -76 142 -106 160 -96 216 -141 393 -320 215
-217 287 -317 325 -450 60 -213 32 -325 -105 -418 -80 -55 -282 -301 -337
-411 -15 -31 -32 -69 -36 -86 -5 -16 -10 -37 -12 -45 -3 -8 -7 -60 -10 -115
-5 -91 -2 -114 32 -255 20 -85 39 -166 41 -180 3 -14 7 -31 10 -39 2 -8 7 -29
10 -47 5 -30 2 -34 -23 -40 -15 -3 -34 -8 -42 -10 -18 -6 -175 -41 -216 -48
-16 -3 -40 -8 -51 -10 -12 -2 -39 -7 -60 -11 -22 -3 -50 -7 -64 -10 -80 -12
-108 -17 -135 -20 -16 -1 -61 -6 -100 -10 -38 -4 -81 -9 -95 -11 -176 -21
-701 -21 -880 0 -19 3 -64 7 -100 11 -36 3 -76 8 -90 10 -14 2 -45 7 -70 10
-122 16 -349 60 -475 92 -55 14 -107 26 -115 28 -69 15 -461 146 -525 175 -11
5 -69 30 -130 56 -330 139 -694 349 -1000 577 -200 150 -341 272 -540 472
-193 193 -210 211 -319 345 -33 41 -64 77 -67 80 -3 3 -32 41 -65 85 -32 44
-61 82 -64 85 -20 18 -220 329 -287 445 -90 158 -212 405 -267 540 -21 50 -43
104 -51 120 -43 98 -183 548 -209 678 -3 15 -8 39 -11 55 -3 15 -12 59 -20 97
-21 104 -24 125 -31 180 -4 28 -8 53 -10 56 -2 3 -6 33 -9 65 -4 32 -8 66 -10
74 -3 8 -7 53 -11 99 -3 47 -8 96 -10 110 -9 52 -11 599 -3 696 10 135 19 217
29 295 5 36 12 90 15 120 4 30 8 57 10 60 2 3 6 30 10 60 4 30 9 58 11 61 2 4
6 24 9 45 4 22 8 47 11 56 3 10 7 28 10 40 4 22 51 213 58 233 1 6 6 24 11 40
26 103 113 362 163 487 l11 27 48 -19 c26 -10 86 -30 133 -46 126 -40 137 -46
134 -69 -1 -11 -5 -40 -8 -65 -8 -67 7 -99 79 -169 88 -84 109 -127 109 -216
0 -51 -7 -85 -24 -125 -32 -74 -83 -157 -121 -200 -41 -47 -110 -153 -138
-214 -71 -154 -87 -381 -44 -592 25 -123 61 -227 96 -279 97 -145 281 -238
456 -231 58 2 97 11 166 39 167 65 219 74 301 51 71 -19 101 -56 219 -265 54
-95 122 -216 152 -267 29 -52 53 -95 53 -98 0 -2 18 -33 40 -69 22 -36 40 -67
40 -70 0 -6 167 -254 182 -269 7 -8 22 -26 32 -41 19 -25 34 -43 79 -95 92
-104 132 -251 97 -355 -20 -61 -53 -107 -132 -187 -41 -40 -89 -93 -109 -118
-63 -81 -139 -189 -139 -199 0 -6 -6 -14 -12 -18 -18 -11 -82 -111 -98 -152
-7 -18 -13 -59 -13 -90 1 -101 53 -184 142 -224 57 -25 137 -19 274 23 53 16
114 32 135 35 43 6 63 10 142 26 70 14 279 76 302 89 10 6 23 10 29 10 6 0 27
7 47 16 21 9 48 21 62 26 35 14 48 21 105 52 217 121 342 307 380 566 4 25 11
70 15 100 9 55 6 392 -5 655 -11 252 -11 329 -2 368 16 65 167 204 358 330
138 91 238 187 276 264 38 78 37 139 -13 613 -10 100 -14 174 -15 271 -2 203
76 345 237 435 71 40 121 85 135 122 15 38 13 119 -5 212 -3 14 -8 49 -11 79
-4 30 -9 63 -11 75 -2 12 -11 67 -19 123 -8 56 -17 108 -20 115 -2 7 -6 29 -9
48 -3 19 -8 46 -11 60 -15 72 -56 300 -60 335 -6 53 -16 194 -20 264 -1 31 -3
65 -4 76 -3 49 -1 48 -306 49 l-287 1 -24 28 c-31 36 -30 56 5 120 25 45 36
76 47 137 20 104 20 256 0 301 -19 46 -66 90 -108 105 -45 15 -368 6 -518 -14
-71 -10 -160 2 -212 29 -88 45 -256 235 -342 387 -61 108 -148 356 -172 490
-3 14 -6 29 -7 35 -6 31 486 274 765 377 160 60 410 139 518 165 86 21 301 65
360 75 41 7 82 14 92 15 9 2 38 6 65 10 26 4 59 9 73 11 14 2 56 6 95 10 38 3
81 8 95 10 14 2 104 7 200 10 96 4 176 8 178 9 3 2 94 -1 312 -10z m4098 1
c68 -4 131 -9 140 -11 9 -1 52 -6 94 -9 42 -4 85 -8 95 -10 10 -2 45 -7 78
-11 32 -3 62 -8 65 -10 3 -2 24 -6 46 -9 21 -3 77 -12 124 -21 47 -10 95 -19
107 -21 12 -2 84 -20 160 -40 76 -19 145 -37 153 -38 43 -10 320 -104 417
-142 212 -81 448 -192 618 -289 190 -109 176 -100 305 -184 145 -94 481 -346
510 -381 3 -4 41 -38 85 -77 402 -352 778 -826 1053 -1328 150 -274 301 -635
389 -930 40 -136 116 -456 128 -542 3 -21 8 -49 11 -63 2 -14 6 -34 8 -46 2
-12 7 -45 11 -74 4 -29 9 -62 11 -74 2 -11 6 -52 10 -91 3 -38 7 -81 9 -94 22
-135 22 -757 0 -870 -2 -12 -6 -54 -10 -94 -3 -40 -7 -81 -9 -92 -2 -11 -7
-42 -10 -70 -7 -50 -31 -197 -41 -245 -3 -14 -8 -38 -11 -55 -4 -24 -54 -236
-69 -295 -98 -379 -280 -812 -501 -1197 -264 -459 -674 -946 -1089 -1294 -445
-374 -981 -684 -1500 -868 -49 -18 -101 -37 -115 -42 -89 -32 -412 -122 -490
-136 -14 -2 -41 -8 -60 -13 -83 -21 -337 -61 -480 -75 -30 -3 -71 -8 -90 -10
-146 -18 -1210 -29 -1210 -13 0 5 4 8 8 8 4 0 17 7 27 15 11 8 78 56 148 107
392 282 800 666 1103 1038 38 47 71 87 74 90 3 3 18 23 35 45 16 22 31 42 35
45 32 28 294 419 383 570 102 174 260 479 304 586 7 16 31 72 54 124 23 52 52
124 66 160 34 90 161 464 167 492 3 13 17 66 31 118 21 77 69 282 91 385 5 28
22 123 29 165 3 19 7 46 10 60 3 14 7 43 10 65 2 22 9 72 14 110 5 39 13 102
16 140 4 39 9 83 11 99 23 197 23 880 0 1016 -3 14 -7 60 -11 102 -3 42 -7 85
-9 95 -2 10 -7 43 -10 74 -4 31 -9 67 -11 80 -3 13 -7 42 -10 64 -3 22 -8 54
-11 70 -3 17 -7 39 -8 50 -6 38 -37 190 -57 275 -12 47 -22 92 -24 100 -17 82
-85 316 -135 470 -124 374 -331 823 -536 1161 -114 189 -267 412 -381 559
-298 384 -638 732 -999 1021 -107 86 -366 278 -409 304 -21 12 848 13 1053 1z"/>
</g>
</svg>
