<svg width="24" height="24" viewBox="0 0 24 24" fill="none" xmlns="http://www.w3.org/2000/svg">
<path d="M19.4999 17.0673H15.0822L12.1416 21.0564L9.46322 17.0673H4.59889C2.64672 17.0673 1.06445 15.652 1.06445 13.9033V6.09786C1.06445 4.35278 2.64672 2.93384 4.59889 2.93384H19.4999C21.4521 2.93384 23.0343 4.34791 23.0343 6.09786V13.9069C23.0343 15.652 21.4521 17.0673 19.4999 17.0673Z" fill="#E6E8EC"/>
<path d="M16.3564 11.0811H8.30035C8.16575 11.0811 8.05664 11.1884 8.05664 11.3208V11.4048C8.05664 11.5372 8.16575 11.6445 8.30035 11.6445H16.3564C16.491 11.6445 16.6001 11.5372 16.6001 11.4048V11.3208C16.6001 11.1884 16.491 11.0811 16.3564 11.0811Z" fill="black"/>
<path d="M18.9864 8.83594H5.67015C5.52872 8.83594 5.41406 8.94872 5.41406 9.08784V9.14747C5.41406 9.2866 5.52872 9.39938 5.67015 9.39938H18.9864C19.1279 9.39938 19.2425 9.2866 19.2425 9.14747V9.08784C19.2425 8.94872 19.1279 8.83594 18.9864 8.83594Z" fill="black"/>
</svg>
