<svg xmlns="http://www.w3.org/2000/svg" xmlns:xlink="http://www.w3.org/1999/xlink" viewBox="0 0 100.41 111.27"><defs><style>.cls-1{fill:#646363;}.cls-2{fill:url(#Unbenannter_Verlauf_2);}.cls-3{fill:url(#Unbenannter_Verlauf_3);}</style><linearGradient id="Unbenannter_Verlauf_2" y1="35.21" x2="80" y2="35.21" gradientUnits="userSpaceOnUse"><stop offset="0" stop-color="#d85509"/><stop offset="0.14" stop-color="#df6510"/><stop offset="0.49" stop-color="#ed861f"/><stop offset="0.67" stop-color="#f39325"/></linearGradient><linearGradient id="Unbenannter_Verlauf_3" x1="20.41" y1="31.58" x2="100.41" y2="31.58" gradientUnits="userSpaceOnUse"><stop offset="0.18" stop-color="#36a9e1"/><stop offset="0.56" stop-color="#1f8bcc"/><stop offset="1" stop-color="#0063af"/></linearGradient></defs><g id="Ebene_2" data-name="Ebene 2"><g id="Ebene_1-2" data-name="Ebene 1"><path class="cls-1" d="M24,83h4a8.19,8.19,0,0,1-.09,1.3C27.75,85.41,27,86,25.66,86H20.44A2,2,0,0,1,19,85.43a2,2,0,0,1-.54-1.49V70.42l.15-.14h1.27c1.36,0,2,.73,2,2.18V83.05C22.65,83,23.35,83,24,83Z"/><path class="cls-1" d="M30.31,85.91V70.42A9.06,9.06,0,0,1,32,70.28a9.18,9.18,0,0,1,1.74.14V85.91a9.18,9.18,0,0,1-1.74.14A9.06,9.06,0,0,1,30.31,85.91Z"/><path class="cls-1" d="M43,73.28,43,75v11a10.82,10.82,0,0,1-3.47,0V75l0-1.68h0l-1.4,0H35.75a9.48,9.48,0,0,1,0-2.88H46.86A4.76,4.76,0,0,1,47,71.8,1.39,1.39,0,0,1,46.61,73a2.18,2.18,0,0,1-1.38.35h-.79l-1.41,0Z"/><path class="cls-1" d="M54.51,73.28l0,1.68v11a10.82,10.82,0,0,1-3.47,0V75l0-1.68h0l-1.41,0h-2.4a9.48,9.48,0,0,1,0-2.88H58.36a4.76,4.76,0,0,1,.18,1.38A1.39,1.39,0,0,1,58.11,73a2.22,2.22,0,0,1-1.38.35h-.8l-1.4,0Z"/><path class="cls-1" d="M65.84,83h4a8.19,8.19,0,0,1-.09,1.3c-.18,1.13-.94,1.7-2.27,1.7H62.28a2,2,0,0,1-1.47-.55,2,2,0,0,1-.54-1.49V70.42l.15-.14h1.27c1.36,0,2.05.73,2.05,2.18V83.05C64.49,83,65.19,83,65.84,83Z"/><path class="cls-1" d="M75.51,81.53l0,1.57v0c.67,0,1.22-.05,1.66-.05h5.35a7.48,7.48,0,0,1-.07,1.23A2,2,0,0,1,80.2,86H74.08a2,2,0,0,1-1.47-.55,2.05,2.05,0,0,1-.53-1.49V70.58l.16-.16h9.68A6.06,6.06,0,0,1,82,71.74a4.62,4.62,0,0,1-.28,1.58H75.48l0,1.61v1.8c.39,0,.9,0,1.52,0h3.55a4,4,0,0,1,.21,1.4,4.38,4.38,0,0,1-.21,1.44H75.51Z"/><path class="cls-1" d="M5.65,109,2.23,91.44a5.84,5.84,0,0,1,2.33-.51,2.35,2.35,0,0,1,1.68.51A3.35,3.35,0,0,1,7,93.34l1.29,7.77c.42,2.44.67,4,.74,4.79a7.74,7.74,0,0,0,.14,1.21s.1.07.22.07l2.47-15.62a16.86,16.86,0,0,1,2.83-.2,16.37,16.37,0,0,1,2.81.2l2.27,15.22a.6.6,0,0,0,.1.34.34.34,0,0,0,.22.06c.19-1.76.48-3.81.86-6.13l1.73-9.86A9,9,0,0,1,24.59,91a7.88,7.88,0,0,1,2.13.29l.2.29-3.86,19.22a30.3,30.3,0,0,1-3.34.2,4.67,4.67,0,0,1-2.24-.4,2.19,2.19,0,0,1-.86-1.62l-1-6.41q-.66-4.67-.86-6.73h-.23q-.37,3.16-1,6.73l-1.35,8.23a33.19,33.19,0,0,1-3.4.2,4.61,4.61,0,0,1-2.2-.39A2.25,2.25,0,0,1,5.65,109Z"/><path class="cls-1" d="M31.92,109.46c-2.06-1.71-3.08-4.53-3.08-8.45s1-6.74,3.08-8.44a8.25,8.25,0,0,1,5.41-1.82,8.24,8.24,0,0,1,5.4,1.82c2.06,1.7,3.08,4.52,3.08,8.44s-1,6.74-3.08,8.45a8.29,8.29,0,0,1-5.4,1.81A8.3,8.3,0,0,1,31.92,109.46Zm5.39-15.31q-3.9,0-3.9,6.86c0,4.58,1.3,6.86,3.9,6.86s3.9-2.28,3.9-6.86S39.91,94.15,37.31,94.15Z"/><path class="cls-1" d="M62.83,97.23a5.57,5.57,0,0,1-3.51,5.26,3.85,3.85,0,0,1,2.18,2.62l.92,2.56a4.54,4.54,0,0,0,1.41,2.1,3.17,3.17,0,0,1-1.23,1,4.29,4.29,0,0,1-1.82.38,2,2,0,0,1-1.55-.58,5.52,5.52,0,0,1-1-2L57.1,105.4a3,3,0,0,0-.85-1.38,2.41,2.41,0,0,0-1.65-.49H53.24v7.31a11.81,11.81,0,0,1-2.18.17,11.43,11.43,0,0,1-2.16-.17V91.33l.2-.2c3.22-.08,5.49-.12,6.79-.12a7.66,7.66,0,0,1,5,1.57A5.7,5.7,0,0,1,62.83,97.23Zm-9.59-2.91v5.84l2.31-.06c1.86,0,2.79-.95,2.79-2.87s-.93-2.88-2.79-2.88Q54.11,94.35,53.24,94.32Z"/><path class="cls-1" d="M73.59,107.12h5.09a9.87,9.87,0,0,1-.12,1.65c-.23,1.43-1.19,2.15-2.87,2.15H69.07a2.52,2.52,0,0,1-1.87-.69,2.56,2.56,0,0,1-.69-1.9V91.19l.2-.18h1.61c1.73,0,2.59.92,2.59,2.76v13.44C71.87,107.15,72.76,107.12,73.59,107.12Z"/><path class="cls-1" d="M96.45,96a16.26,16.26,0,0,1,.67,5,16.71,16.71,0,0,1-.66,5,7.23,7.23,0,0,1-2.56,3.57,6,6,0,0,1-2.39,1.08,13.75,13.75,0,0,1-3.22.36c-1.15,0-3.4,0-6.73-.12l-.21-.2V91.33l.21-.2q3.3-.12,7.1-.12a11.78,11.78,0,0,1,2.85.38,6.16,6.16,0,0,1,2.39,1.09A7.39,7.39,0,0,1,96.45,96Zm-10,11.53,2.24,0q3.95,0,3.94-6.56t-3.94-6.57l-2.93,0v13.15A3.31,3.31,0,0,1,86.42,107.56Z"/><path class="cls-2" d="M66.69,8.56H50.2a24.68,24.68,0,0,1,9.39,1.85c-.33.32-.65.65-1,1a1.38,1.38,0,0,0-.29,1.72c.17.35.38.68.57,1a8.33,8.33,0,0,0,1.66,1.94A1.61,1.61,0,0,1,61,17.68c-.09.36.12.71-.08,1,0,.06,0,.22.1.33.4.82.74,1,1.65.75a7.1,7.1,0,0,1,2.47-.17,1.76,1.76,0,0,1,1.56,1.05c.1.23.17.46.27.68a1.28,1.28,0,0,0,1.43.9,3,3,0,0,0,2.08-1.09c.25-.31.49-.64.73-1a24.69,24.69,0,0,1,2.5,21,2.7,2.7,0,0,0-.93-.46,1.74,1.74,0,0,1-1-2.71c.06-.1.14-.19.2-.3A1.19,1.19,0,0,0,72,36.37a6.42,6.42,0,0,0-.38-.53,1.24,1.24,0,0,0-2-.17A5.79,5.79,0,0,1,67.35,37c-.93.27-1.87.54-2.81.78a3.77,3.77,0,0,0-1.5.74,1.6,1.6,0,0,1-1.28.44,14.53,14.53,0,0,0-2.09-.23,3.28,3.28,0,0,0-3.29,1.45,2.3,2.3,0,0,1-1.84,1.15l-.22,0a1.23,1.23,0,0,0-.94,1.09,2.67,2.67,0,0,0,1.34,2.8,9.66,9.66,0,0,1,2.51,2.12,4.25,4.25,0,0,1,1.15,1.69c.33,1.14.28,1.77-.62,2.29a10.91,10.91,0,0,0-1.54,1.91A3.1,3.1,0,0,0,56,55.63c.16.58.28,1.17.4,1.75a24.84,24.84,0,0,1-6.2.79H29.8a24.81,24.81,0,1,1,0-49.61h3.92a29.6,29.6,0,0,1,16.48-5H29.8A29.77,29.77,0,0,0,6.94,52.45L4.83,66.86,15,59.22A29.61,29.61,0,0,0,29.8,63.16H50.2A29.79,29.79,0,0,0,66.69,8.56Z"/><path class="cls-3" d="M91.65,12.29,93.45,0,84.26,6.89A29.57,29.57,0,0,0,70.61,3.57H50.2a29.79,29.79,0,0,0-16.48,54.6H50.2a24.79,24.79,0,0,1-23-34.09,2.36,2.36,0,0,0,.59.24,8,8,0,0,1,1,.33c0,.1,0,.13,0,.15a.87.87,0,0,0,.32,1.12,1.43,1.43,0,0,1,.31,2,3.33,3.33,0,0,1-.43.67,4.31,4.31,0,0,0-1,3.61,6.84,6.84,0,0,0,.34,1.42A2.43,2.43,0,0,0,29.59,35a2.32,2.32,0,0,0,2.1.06,3.41,3.41,0,0,1,.76-.26,1.15,1.15,0,0,1,1.41.62c.28.48.56,1,.83,1.46a20.21,20.21,0,0,0,2.55,3.91,2.13,2.13,0,0,1,.49,1.33,1.67,1.67,0,0,1-.56,1.14,13,13,0,0,0-1.77,2.23,1.35,1.35,0,0,0,0,1.58c.35.47.8.57,1.52.36A8.92,8.92,0,0,1,38,47.14a12.34,12.34,0,0,0,2.8-.82,3.68,3.68,0,0,0,2.33-2.56,9.66,9.66,0,0,0,.21-2.84c-.06-1-.09-2.09-.11-3.14a.81.81,0,0,1,.22-.52,7.71,7.71,0,0,1,1.26-1.1,6.71,6.71,0,0,0,1.38-1A1.51,1.51,0,0,0,46.61,34c0-.39,0-.78-.09-1.16-.07-.81-.16-1.61-.2-2.41a2.34,2.34,0,0,1,1.31-2.48,1,1,0,0,0,.61-1.12c-.15-1-.28-2-.49-3a14.88,14.88,0,0,1-.38-3,4.85,4.85,0,0,0-.07-.55h-.83c-.62,0-1.23,0-1.84,0-.4,0-.63-.35-.44-.63a3.46,3.46,0,0,0,.4-1.89,1,1,0,0,0-.81-1c-.61,0-1.22,0-1.83.05a8,8,0,0,1-1.09.08,1.47,1.47,0,0,1-.79-.3,6.3,6.3,0,0,1-1.86-2.58,13.63,13.63,0,0,1-.53-1.82s0-.05,0-.09A24.64,24.64,0,0,1,50.2,8.56H70.61a24.81,24.81,0,0,1,0,49.61H66.69a29.61,29.61,0,0,1-16.49,5H70.61a29.78,29.78,0,0,0,21-50.87Z"/></g></g></svg>