<svg width="40" height="16" viewBox="0 0 40 16" fill="none" xmlns="http://www.w3.org/2000/svg">
<path d="M38.7713 10.9529L34.4651 15.364C34.3246 15.5085 34.1403 15.6025 33.9413 15.6312C33.7422 15.66 33.5397 15.6218 33.3654 15.5228L27.147 11.9925C26.997 11.9066 26.8748 11.7797 26.7946 11.6265C26.7144 11.4733 26.6796 11.3002 26.6941 11.1274L27.0103 7.69989C27.0282 7.50094 26.98 7.30203 26.8731 7.13401C26.7663 6.966 26.6068 6.83827 26.4194 6.77062C25.1682 6.31977 22.3339 5.45616 19.5879 5.6925C16.9413 5.92857 14.2301 6.612 12.936 6.97732C12.7218 7.03766 12.5368 7.17439 12.4159 7.36157C12.2951 7.54876 12.2469 7.77337 12.2805 7.9928L12.7435 11.0677C12.7712 11.2497 12.7428 11.4361 12.6621 11.6022C12.5815 11.7683 12.4525 11.9063 12.2921 11.9979L6.03355 15.575C5.86273 15.6722 5.66544 15.7118 5.47102 15.688C5.2766 15.6642 5.09544 15.5782 4.95447 15.4429L0.636802 11.2279C0.476544 11.0713 0.380339 10.8606 0.366768 10.6363C0.353196 10.4121 0.423226 10.1902 0.563322 10.0137C2.36135 7.73623 9.106 0.408974 21.0515 0.995587C32.8792 1.57662 37.6639 7.82032 38.9096 9.83854C39.0145 10.0122 39.0579 10.2164 39.0328 10.4185C39.0078 10.6205 38.9157 10.8087 38.7713 10.9529Z" fill="white"/>
</svg>
