<svg width="50" height="50" viewBox="0 0 50 50" fill="none" xmlns="http://www.w3.org/2000/svg">
<rect x="9.98438" y="14.5" width="30.0323" height="19" rx="3" fill="#E6E8EC"/>
<path d="M25.1449 26.0338C26.9854 26.0338 28.4774 24.5073 28.4774 22.6243C28.4774 20.7413 26.9854 19.2148 25.1449 19.2148C23.3045 19.2148 21.8125 20.7413 21.8125 22.6243C21.8125 24.5073 23.3045 26.0338 25.1449 26.0338Z" fill="black"/>
<path d="M27.7724 26.4308C27.6814 26.387 27.5811 26.3671 27.4807 26.3731C27.3803 26.3791 27.283 26.4108 27.1976 26.4651C26.5812 26.8567 25.8701 27.0641 25.1446 27.0641C24.4191 27.0641 23.708 26.8567 23.0916 26.4651C23.0064 26.4108 22.9092 26.3791 22.8089 26.3731C22.7087 26.3671 22.6085 26.387 22.5177 26.4308C21.5563 26.8927 20.7274 27.6003 20.1111 28.4854C19.4947 29.3704 19.1117 30.403 18.9989 31.4836C18.9908 31.5685 19.0001 31.6542 19.0264 31.7352C19.0526 31.8162 19.0951 31.8907 19.1512 31.9538C19.2072 32.017 19.2756 32.0674 19.3519 32.1019C19.4282 32.1364 19.5107 32.1541 19.5941 32.1539L30.6951 32.1539C30.7786 32.1542 30.8612 32.1366 30.9376 32.1022C31.014 32.0678 31.0825 32.0173 31.1386 31.9542C31.1948 31.891 31.2374 31.8165 31.2637 31.7354C31.2899 31.6544 31.2993 31.5686 31.2911 31.4836C31.1784 30.403 30.7953 29.3704 30.179 28.4854C29.5627 27.6003 28.7338 26.8927 27.7724 26.4308Z" fill="black"/>
<path d="M12.7422 20.6288L12.7422 19.2578C12.7422 18.1532 13.6376 17.2578 14.7422 17.2578L15.9599 17.2578" stroke="black" stroke-width="2"/>
</svg>
