<svg width="51" height="50" viewBox="0 0 51 50" fill="none" xmlns="http://www.w3.org/2000/svg">
<g opacity="0.7" fill-rule="evenodd">
<path d="M34.4758 32.1571L29.2068 32.1571L25.6999 37L22.5087 32.1571L16.7147 32.1571C14.3861 32.1571 12.5 30.4389 12.5 28.3158L12.5 18.8412C12.5 16.7227 14.3861 15 16.7147 15L34.4758 15C36.8029 15 38.6905 16.7167 38.6905 18.8412L38.6905 28.3217C38.6905 30.4389 36.8029 32.1571 34.4758 32.1571Z" fill="#E6E8EC"/>
<path d="M23.1992 19.4286C24.0734 18.8839 25.0808 18.5919 26.1103 18.585C27.118 18.585 27.8848 18.8287 28.4108 19.3163C28.9367 19.8038 29.2022 20.4465 29.2071 21.2443C29.2071 22.5149 28.5681 23.4899 27.29 24.1695L26.3904 24.6423L26.243 25.8242C25.9787 25.9092 25.702 25.9492 25.4245 25.9424C25.1422 25.9484 24.8608 25.9085 24.5913 25.8242L24.4733 23.6229L24.6503 23.4013L25.4466 23.0319C26.4199 22.5887 26.9066 22.0766 26.9066 21.4954C26.9132 21.3559 26.8889 21.2166 26.8353 21.0876C26.7818 20.9586 26.7003 20.8431 26.5969 20.7494C26.3904 20.5681 26.066 20.477 25.6236 20.476C25.1812 20.4751 24.6356 20.6474 23.9867 20.9931C23.7633 20.8013 23.5825 20.5648 23.4558 20.2987C23.3062 20.0316 23.2185 19.7342 23.1992 19.4286ZM24.379 27.1849C24.7088 27.0293 25.0688 26.9486 25.4334 26.9486C25.7979 26.9486 26.158 27.0293 26.4878 27.1849C26.704 27.7254 26.704 28.3286 26.4878 28.8692C26.158 29.0248 25.7979 29.1055 25.4334 29.1055C25.0688 29.1055 24.7088 29.0248 24.379 28.8692C24.1627 28.3286 24.1627 27.7254 24.379 27.1849Z" fill="none"/>
</g>
</svg>
