<svg width="16" height="22" viewBox="0 0 16 22" fill="none" xmlns="http://www.w3.org/2000/svg">
<path d="M16 21.5H0V19.5C0 18.1739 0.526784 16.9021 1.46447 15.9645C2.40215 15.0268 3.67392 14.5 5 14.5H11C12.3261 14.5 13.5979 15.0268 14.5355 15.9645C15.4732 16.9021 16 18.1739 16 19.5V21.5ZM8 12.5C7.21207 12.5 6.43185 12.3448 5.7039 12.0433C4.97595 11.7417 4.31451 11.2998 3.75736 10.7426C3.20021 10.1855 2.75825 9.52405 2.45672 8.7961C2.15519 8.06815 2 7.28793 2 6.5C2 5.71207 2.15519 4.93185 2.45672 4.2039C2.75825 3.47595 3.20021 2.81451 3.75736 2.25736C4.31451 1.70021 4.97595 1.25825 5.7039 0.956723C6.43185 0.655195 7.21207 0.5 8 0.5C9.5913 0.5 11.1174 1.13214 12.2426 2.25736C13.3679 3.38258 14 4.9087 14 6.5C14 8.0913 13.3679 9.61742 12.2426 10.7426C11.1174 11.8679 9.5913 12.5 8 12.5V12.5Z" fill="url(#paint0_linear_6002_73206)"/>
<defs>
<linearGradient id="paint0_linear_6002_73206" x1="1.56462e-07" y1="20.1875" x2="21.7372" y2="6.3861" gradientUnits="userSpaceOnUse">
<stop stop-color="#36A9E0"/>
<stop offset="1" stop-color="#0367B2"/>
</linearGradient>
</defs>
</svg>

