<svg width="47" height="47" viewBox="0 0 47 47" fill="none" xmlns="http://www.w3.org/2000/svg">
<path d="M23.5 0.333984C18.951 0.333984 14.5042 1.68291 10.7219 4.21018C6.93956 6.73745 3.9916 10.3296 2.25078 14.5323C0.509967 18.735 0.0544884 23.3595 0.941948 27.8211C1.82941 32.2826 4.01994 36.3808 7.23655 39.5974C10.4532 42.814 14.5514 45.0046 19.0129 45.892C23.4745 46.7795 28.099 46.324 32.3017 44.5832C36.5044 42.8424 40.0965 39.8944 42.6238 36.1121C45.1511 32.3298 46.5 27.8829 46.5 23.334C46.5 17.234 44.0768 11.3839 39.7635 7.07053C35.4501 2.75719 29.6 0.333984 23.5 0.333984ZM34.1178 31.5728C34.2669 31.7217 34.3853 31.8985 34.466 32.0932C34.5467 32.2879 34.5883 32.4966 34.5883 32.7073C34.5883 32.9181 34.5467 33.1268 34.466 33.3215C34.3853 33.5161 34.2669 33.693 34.1178 33.8419L34.0216 33.938C33.8727 34.0872 33.6959 34.2055 33.5012 34.2862C33.3065 34.367 33.0978 34.4085 32.8871 34.4085C32.6763 34.4085 32.4676 34.367 32.273 34.2862C32.0783 34.2055 31.9014 34.0872 31.7525 33.938L23.5137 25.6992L15.2749 33.938C15.126 34.0872 14.9492 34.2055 14.7545 34.2862C14.5598 34.367 14.3511 34.4085 14.1404 34.4085C13.9296 34.4085 13.7209 34.367 13.5263 34.2862C13.3316 34.2055 13.1547 34.0872 13.0058 33.938L12.9063 33.8419C12.6059 33.5407 12.4372 33.1327 12.4372 32.7073C12.4372 32.282 12.6059 31.874 12.9063 31.5728L21.1451 23.334L12.9063 15.0952C12.6061 14.7946 12.4375 14.3872 12.4375 13.9623C12.4375 13.5375 12.6061 13.1301 12.9063 12.8295L13.0058 12.7299C13.307 12.4296 13.715 12.2609 14.1404 12.2609C14.5658 12.2609 14.9738 12.4296 15.2749 12.7299L23.5137 20.9688L31.7525 12.7299C32.0537 12.4296 32.4617 12.2609 32.8871 12.2609C33.3125 12.2609 33.7205 12.4296 34.0216 12.7299L34.1178 12.8295C34.2672 12.9779 34.3858 13.1544 34.4668 13.3488C34.5477 13.5432 34.5894 13.7517 34.5894 13.9623C34.5894 14.1729 34.5477 14.3815 34.4668 14.5759C34.3858 14.7703 34.2672 14.9468 34.1178 15.0952L25.879 23.334L34.1178 31.5728Z" fill="url(#paint0_linear_6002_73187)"/>
<defs>
<linearGradient id="paint0_linear_6002_73187" x1="0.510309" y1="23.3237" x2="46.4897" y2="23.3237" gradientUnits="userSpaceOnUse">
<stop stop-color="#F28D00"/>
<stop offset="0.18" stop-color="#F49718"/>
<stop offset="0.55" stop-color="#F6AA47"/>
<stop offset="0.83" stop-color="#F8B663"/>
<stop offset="1" stop-color="#F9BA6E"/>
</linearGradient>
</defs>
</svg>

